<?xml version="1.0" encoding="UTF-8"?>
<svg width="201px" height="140px" viewBox="0 0 201 140" version="1.1" xmlns="http://www.w3.org/2000/svg" xmlns:xlink="http://www.w3.org/1999/xlink">
    <!-- Generator: Sketch 52.3 (67297) - http://www.bohemiancoding.com/sketch -->
    <title>logo / AD WHITE</title>
    <desc>Created with Sketch.</desc>
    <g id="&gt;&gt;&gt;-3.-Brands-&amp;-Footprint" stroke="none" stroke-width="1" fill="none" fill-rule="evenodd">
        <g id="CNI-Brands---Logos---WHITE" transform="translate(-249.000000, -190.000000)" fill="#FFFFFF">
            <g id="logo-/-AD-WHITE" transform="translate(249.000000, 190.000000)">
                <g transform="translate(0.000000, 0.000000)" id="Fill-1">
                    <path d="M200.4029,73.0387097 C200.4029,55.4980645 196.016562,39.2212903 188.161352,27.8283871 C181.217126,17.7012903 173.908507,12.4574194 162.580536,9.56322581 C155.454113,7.75419355 145.406058,6.66967742 136.633381,6.66967742 L99.7258906,6.66967742 L99.7258906,8.03096774 C109.592397,10.7445161 112.333778,14.4458065 112.333778,26.1993548 L112.333778,105.954839 C112.333778,122.625161 110.936504,134.056774 106.288865,138.157419 C104.209487,135.749032 102.399839,129.909032 99.7343197,123.563226 C97.8462165,119.065161 94.7657294,110.656774 93.8968906,108.125806 L56.8052584,0.521290323 L19.7609584,105.227742 C18.6651842,108.120645 16.5008681,114.467742 16.3186713,115.010968 C14.3086713,120.616774 12.4056552,124.218065 10.3956552,127.655484 C7.10573903,133.08 4.36500677,135.69871 0.162161613,138.050323 L0.162161613,139.410323 L39.4472874,139.410323 L39.4213519,138.089677 C33.9943519,137.658065 28.9907487,133.922581 28.0207616,128.027742 C27.6978648,126.067742 27.2984584,119.810968 27.3250423,117.628387 C27.386639,112.482581 27.4462906,102.983871 29.8498616,92.3083871 L68.1468455,92.3083871 L73.7962423,111.379355 C73.981681,112.103226 74.3460745,113.186452 74.7117648,114.271613 C76.7217648,121.144516 77.4518487,124.58129 77.4518487,128.016774 C77.4518487,133.982581 74.3460745,136.963226 67.4024971,138.050323 L67.4024971,139.410323 L98.8123132,139.410323 L111.073313,139.410323 L149.243213,139.410323 C162.214845,139.410323 171.351268,136.334839 179.389323,129.282581 C192.545745,117.889677 200.4029,96.7296774 200.4029,73.0387097 Z M67.7831003,91.0696774 L30.0657745,91.0696774 C32.6230132,80.4025806 37.2414745,63.636129 39.9822068,54.5922581 L41.8093616,48.4451613 L43.6352197,42.4754839 L45.6458681,36.5077419 C45.6458681,36.1464516 48.1609616,29.6509677 48.7101455,27.6625806 L67.7831003,91.0696774 Z M177.927858,73.9445161 C177.437678,97.8116129 174.602929,108.625806 168.939268,117.965806 C160.205494,132.365806 155.966339,137.456774 132.632184,138.050323 L132.622458,8.0516129 C156.19522,7.91354839 166.133697,16.5206452 174.456394,41.9329032 C176.832084,49.5290323 177.927858,58.9335484 177.927858,73.9445161 Z"></path>
                </g>
            </g>
        </g>
    </g>
</svg>