<?xml version="1.0" encoding="UTF-8"?>
<svg width="300px" height="83px" viewBox="0 0 300 83" version="1.1" xmlns="http://www.w3.org/2000/svg" xmlns:xlink="http://www.w3.org/1999/xlink">
    <!-- Generator: Sketch 52.3 (67297) - http://www.bohemiancoding.com/sketch -->
    <title>logo / allure black</title>
    <desc>Created with Sketch.</desc>
    <g id="&gt;&gt;&gt;-3.-Brands-&amp;-Footprint" stroke="none" stroke-width="1" fill="none" fill-rule="evenodd">
        <g id="CNI-Brands---Logos" transform="translate(-373.000000, -2122.000000)" fill="#FFF">
            <g id="logo-/-allure-black" transform="translate(373.000000, 2122.000000)">
                <g id="Group-2">
                    <path d="M299.506275,44.3786812 C299.506275,43.6331 299.151525,42.9612966 298.888275,42.3767496 C298.535025,41.8702368 297.861525,41.3793308 297.861525,40.6316214 L298.353525,39.3681769 C298.353525,38.3643735 297.562275,37.3690829 297.208275,36.4567923 L295.971525,33.0211598 C295.435275,31.850647 294.827775,30.692194 294.209775,29.6848436 C293.147025,28.1802026 291.302775,27.931912 290.503275,27.3480744 L289.703775,25.7668179 C287.669025,24.5920487 285.461025,23.3427923 283.262775,22.5092453 C282.635775,22.3389889 281.582775,22.1751171 280.883775,21.9168949 C280.429275,21.7551513 279.549525,21.4181855 279.549525,21.4181855 C279.111525,21.3330573 278.936775,21.0833479 278.484525,20.8343479 C277.694775,20.2505103 276.812775,19.5893479 275.315775,19.5893479 C274.514775,19.5893479 273.987525,19.829835 273.290025,20.0000915 C272.843025,20.0880573 272.306775,20.0880573 272.052525,20.0880573 L270.545025,19.829835 C270.017775,19.5893479 270.017775,19.5893479 269.481525,19.5893479 C268.519275,19.5893479 266.837025,19.7518009 265.955775,20.1625444 C265.602525,20.3356385 265.076775,21.1188179 264.809775,21.2039462 C264.809775,21.2039462 263.303775,20.9102538 262.595025,20.9102538 C261.714525,21.0074419 259.778025,21.3330573 259.778025,21.3330573 C257.378775,22.5525188 254.435775,24.5040829 252.194775,26.1711769 C251.630775,26.5847581 252.011775,27.4757667 251.555775,27.8467838 C251.084025,28.2248949 249.767775,28.0610231 249.440775,28.3532966 C247.769775,29.8579376 246.269775,32.1961256 245.389275,34.0249632 C245.389275,34.0249632 244.463025,37.9266726 244.271775,38.1912795 C243.906525,38.6992111 243.534525,39.4561427 243.445275,39.7902709 C243.445275,39.7902709 242.561775,41.2090744 242.128275,41.8702368 C241.499775,43.1329718 241.328775,44.138194 241.146525,44.6369034 L241.238025,46.9658692 C241.238025,47.8079291 241.681275,48.2286043 241.681275,48.2286043 C241.681275,49.0635701 241.146525,49.7218949 241.063275,50.0588607 C240.883275,50.7299547 240.709275,51.2293735 240.709275,51.9834675 C240.709275,52.5673051 242.210025,59.6648692 242.210025,59.6648692 C243.010275,62.0910231 244.325775,63.8333137 245.561775,65.6727923 C246.360525,67.0135615 247.160025,68.2585615 247.850025,69.5142026 C248.033025,69.8483308 248.303775,70.435006 248.387775,71.182006 C248.649525,72.271647 248.833275,73.354194 249.542025,74.1990915 C251.484525,75.8654761 253.592025,77.5297325 256.690275,78.6257581 L258.625275,78.8641171 C259.070775,78.8641171 260.850525,78.9251256 261.023025,79.0868692 C261.023025,79.0868692 261.360525,79.8679205 261.897525,80.2893051 C262.775025,81.0384333 264.194775,81.9563991 264.194775,81.9563991 C266.484525,82.3770744 269.309775,82.4551085 270.188775,82.4551085 C270.817275,82.4551085 271.425525,82.2919462 272.223525,82.1202709 C272.761275,81.7833051 273.461025,81.8776556 273.906525,81.7833051 C274.605525,81.7073991 275.351025,81.073194 276.902025,81.9563991 C277.212525,82.1387154 277.613025,82.1202709 277.874775,82.1202709 C279.729525,82.1202709 282.909525,80.4623991 288.650025,77.5297325 C288.823275,77.5297325 289.259775,77.0338607 289.350525,77.0338607 L290.675025,76.6131855 C291.911025,76.1144761 293.765775,75.6051256 294.918525,74.0259974 C297.380775,70.012912 298.089525,68.7657838 298.089525,65.2514077 C298.089525,63.6694419 297.653025,62.5868949 296.853525,61.6597068 C295.435275,60.0784504 293.229525,60.3366726 291.202275,60.3366726 L290.594025,60.3366726 C290.321775,60.3366726 288.467025,60.3366726 287.942775,61.4163821 C287.942775,61.4163821 286.088025,63.4970573 284.933775,64.6753735 C283.870275,65.9203735 283.870275,66.3417581 283.082775,67.2611427 C282.635775,67.6825274 281.673525,68.1812368 281.318775,68.6898778 C280.962525,69.3517496 279.818775,70.2697154 279.818775,70.2697154 C279.019275,70.8457496 277.874775,70.6052624 276.812775,70.6832966 C276.285525,70.7684248 275.749275,70.7684248 275.315775,70.8457496 C274.958775,71.0188436 273.987525,71.3536812 273.551025,71.517553 C273.115275,71.6878094 272.052525,71.517553 271.961025,71.517553 C271.778025,71.517553 271.425525,71.4388094 270.989025,71.1039718 C270.108525,70.5201342 269.663025,70.3470402 268.690275,70.3470402 C267.628275,70.3470402 265.955775,70.012912 265.955775,70.012912 C265.429275,69.4375872 264.720525,68.7657838 263.840025,68.0180744 C263.131275,67.4243051 261.914025,67.7704932 261.023025,67.519365 C258.379275,66.3516897 257.560275,63.4970573 257.560275,63.4970573 C257.560275,63.4970573 257.217525,62.2520573 257.217525,61.8299632 C257.125275,61.2461256 256.690275,59.6648692 256.690275,59.6648692 C256.328775,58.7376812 256.072275,58.2389718 256.072275,56.8208778 C256.072275,56.8208778 258.188775,55.6546214 259.160025,55.6546214 C259.334025,55.6546214 259.778025,55.7383308 260.213025,55.823459 C260.750775,55.910006 261.276525,56.151912 261.897525,56.151912 C262.513275,56.151912 263.131275,55.823459 263.658525,55.6546214 C264.011775,55.574459 264.640275,55.4042026 264.640275,55.4042026 C265.247775,55.4042026 265.865775,55.4042026 266.309775,55.6546214 C266.666025,55.823459 267.191775,56.151912 267.808275,56.151912 C268.427775,56.151912 268.871775,55.823459 270.017775,55.4042026 C270.635775,54.9054932 271.870275,54.6472709 272.223525,54.6472709 C272.223525,54.6472709 275.932275,54.9054932 277.439775,55.1544932 C280.702275,55.4893308 282.290025,55.6546214 282.909525,55.6546214 C283.435275,55.6546214 283.970025,55.4893308 285.380775,55.1544932 C286.170525,54.9054932 287.314275,54.6472709 287.314275,54.6472709 C287.942775,54.6472709 288.905025,54.820365 289.259775,54.9054932 C289.967025,55.2410402 290.675025,55.4042026 291.030525,55.4042026 C293.681775,55.4042026 297.653025,53.2305957 298.007775,50.0588607 C298.089525,49.0529291 299.043525,48.1101342 299.497275,46.7757496 C299.935275,45.5229462 299.506275,44.8859034 299.506275,44.3786812 M282.108525,35.9325444 C283.571775,36.5681684 283.699275,38.3707581 283.699275,39.714365 C283.699275,41.0019291 282.871275,41.6297496 282.199275,42.8917752 C281.528025,44.1580573 280.246275,43.622459 279.530025,43.9175701 C277.066275,44.9298863 274.212525,45.3846128 273.115275,45.3846128 C272.406525,45.3846128 269.045025,44.0438436 268.335525,44.0438436 C267.454275,44.0438436 266.309775,44.715647 265.429275,44.715647 C264.720525,44.715647 263.220525,43.7075872 262.422525,43.7075872 C261.542025,43.7075872 259.334025,44.3020658 258.452775,44.3020658 C256.418025,44.3020658 255.981525,43.6331 255.981525,42.301553 C255.981525,40.9579462 257.306775,37.8748863 259.778025,37.2030829 C260.487525,36.9448607 261.986025,37.4435701 262.867275,36.7824077 C263.220525,36.3610231 263.486025,34.6939291 264.457275,34.2803479 C266.666025,32.9424162 271.425525,31.6974162 272.223525,31.6974162 C273.196275,31.6974162 274.514775,32.6927068 275.495775,33.3531598 C276.203775,33.5262538 277.086525,33.2786726 277.694775,33.5262538 C279.065775,34.1540744 280.865025,35.3912709 282.108525,35.9325444" id="Fill-1"></path>
                    <path d="M241.6362,39.0765419 C241.6362,38.2429949 241.4547,37.4981231 241.0197,36.6624479 C240.93045,36.069388 240.66495,35.4947726 240.66495,35.0748068 C240.5742,34.7456444 240.5742,34.1540034 240.5742,33.655294 C240.66495,32.572747 240.66495,31.310012 240.49245,30.061465 C240.04695,28.9810462 239.42895,28.1460803 238.90245,27.5530205 C238.6287,27.3827641 238.36695,27.1415675 238.36695,26.9713111 C238.10295,26.6350547 237.8397,26.2995077 237.5757,25.8859265 C236.3397,23.6264821 234.7482,21.1265504 232.98045,21.0414222 C232.1877,21.0414222 231.5712,21.3769692 231.1362,21.6323538 L230.0727,21.4620974 C229.1907,20.963388 228.73695,20.627841 228.21945,20.627841 C227.2467,20.627841 223.80345,21.4620974 222.5667,21.872841 L220.6227,23.2136103 C220.36095,23.3867043 220.16895,24.3670974 220.16895,24.3670974 C220.16895,24.3670974 219.3882,24.1344137 219.21495,24.1344137 C218.41695,24.2968667 216.47145,24.2968667 215.7627,25.2233453 C215.7627,25.2233453 214.8912,26.1363453 214.53795,26.5577299 C213.02895,27.9758239 212.7657,28.4731145 211.62045,28.3879863 C210.91095,28.3879863 210.73995,28.3092427 210.29445,26.2236017 C209.9397,24.2195419 209.23245,20.8782598 204.90645,20.790294 C203.9352,20.7051658 202.8822,20.7051658 202.34445,20.7051658 L200.5827,21.6323538 C199.96545,21.6323538 199.16445,20.0362 198.0207,20.5427128 L191.1357,20.963388 C190.08945,20.8250547 188.91645,20.3462085 188.18145,20.3873538 C187.1367,20.4575846 186.7002,21.0747641 186.28095,21.1265504 C183.4572,21.7983538 181.6857,24.4600291 181.60395,26.5577299 C181.5147,28.3092427 182.91945,29.985559 183.8112,30.8964308 C184.5102,31.645559 186.9012,33.904294 189.6462,33.9809094 C190.4352,33.9809094 191.1357,33.655294 192.27945,33.1502 C192.6327,32.9834906 193.17045,32.6507812 193.17045,32.6507812 C193.17045,32.6507812 196.2597,34.0766786 197.66745,35.159935 C198.72945,37.0739009 198.5577,39.3347641 198.46695,41.6644393 C198.3747,42.4192427 198.3747,43.2520803 198.3747,44.1728838 L198.28545,49.6033538 L198.28545,54.8614393 L198.0207,56.7860462 C197.7672,57.6217214 197.66745,58.7893966 197.7672,59.7868154 C197.7672,60.543747 197.84895,61.788747 198.11295,62.8798068 C198.2037,63.2146444 198.3747,63.9623538 198.3747,64.1354479 C198.3747,64.1354479 197.7672,67.9740205 197.3127,69.2296615 C196.9587,69.8922427 195.90345,70.4001744 195.0147,70.8123368 C194.66895,70.9747897 194.1417,71.3096274 194.1417,71.3096274 C194.22345,71.233012 192.73395,70.897465 192.73395,70.897465 C191.67045,70.6392427 191.1357,70.5612085 190.78995,70.5612085 C189.6462,70.4760803 185.66445,71.1478838 185.48295,75.4014564 C185.48295,76.9124821 185.8392,78.0801573 186.6372,78.7519607 C186.6372,78.7519607 188.49045,81.2433795 189.8172,81.2433795 C190.4352,81.2433795 190.9617,81.0028923 192.27945,80.4956701 C192.73395,80.2487983 193.0797,80.5807983 193.0797,80.5807983 C193.0797,80.5807983 194.05095,80.2487983 194.3142,80.3339265 C195.0147,80.8297983 195.8217,80.9085419 196.43145,80.9085419 C197.0577,80.9085419 197.9382,81.0795077 198.8187,80.8297983 C199.16445,80.7446701 200.5107,80.1260718 200.5107,80.1260718 C201.7542,80.8496615 202.8822,81.4136359 203.49045,81.5016017 L209.5032,81.5016017 C210.29445,81.5016017 211.09395,81.5016017 212.23845,81.0028923 C212.67495,80.8297983 212.7567,80.2991658 212.9367,80.221841 L214.4472,80.8297983 C215.0622,81.0795077 215.7627,81.2433795 216.3912,81.3377299 C217.18095,81.3377299 217.8792,81.0795077 218.5062,80.9085419 L219.8247,80.7446701 C220.09545,80.6687641 220.79595,80.4105419 221.3232,80.4956701 L222.65745,80.4956701 C225.30195,80.3339265 227.2467,76.6542598 227.3367,75.1609692 C227.3367,73.8968154 226.6287,72.6496872 225.7467,71.8168496 C225.03795,70.897465 223.8942,70.4001744 222.8322,70.3122085 C222.1212,70.3122085 221.5047,70.4760803 220.8867,70.6392427 C220.53195,70.7343026 219.29595,70.897465 219.29595,70.897465 C218.23395,70.8123368 215.0622,70.8123368 213.65595,70.4001744 C212.05695,69.8071145 210.11295,68.2230205 209.1492,67.3050547 C208.6227,66.2125761 208.96695,63.5516103 209.1492,62.0469692 C209.1492,61.4539094 209.3217,61.0424564 209.3217,60.543747 L209.41395,58.9610718 C209.5857,56.9513368 209.67795,53.1950547 209.67795,53.1950547 C209.67795,53.1950547 209.67795,52.0266701 209.5857,51.7691573 C209.5857,51.4321915 209.41395,51.1065761 209.41395,50.9441231 C209.41395,50.6078667 208.8762,48.2625846 209.85795,47.678747 C210.46695,47.1828752 210.29445,46.3472 211.0032,45.8484906 C213.2022,44.3452684 214.09095,43.4159521 215.1462,41.2501487 C215.59995,40.3328923 216.2082,38.9133795 216.2082,38.9133795 C216.74445,38.3281231 219.1242,36.9036444 220.6227,35.6558068 C221.3232,34.7456444 221.59695,34.6527128 222.30495,34.2391316 C223.09545,33.5673282 224.0667,33.4822 224.0667,33.4822 L224.41245,34.3178752 C224.41245,34.7456444 224.23995,35.159935 224.0667,35.4947726 C223.4502,36.9036444 223.2672,37.8308325 223.2672,38.5778325 C223.1847,40.4960547 226.2747,44.3452684 228.04545,45.340559 C228.8367,45.7605248 229.71795,46.0123624 230.5077,46.0896872 L230.86095,46.2620718 C231.48945,46.758653 232.0167,47.2651658 232.8897,47.2651658 C233.59695,47.2651658 234.47745,46.8544222 235.10445,46.0896872 C235.7127,45.4285248 236.42295,46.0896872 236.7762,45.4285248 C236.7762,45.4285248 237.5757,44.4225932 238.36695,44.0877556 C239.15745,43.6748838 239.78295,43.2520803 240.4017,42.5057897 C241.28295,41.4218239 241.6362,39.9959265 241.6362,39.0765419" id="Fill-3"></path>
                    <path d="M184.69335,74.9438923 C184.69335,69.8482598 180.36885,69.5141316 177.7161,69.3516786 C176.9241,69.2644222 176.0451,69.2644222 175.7796,69.1005504 C174.8991,68.7657128 174.19335,68.0960376 174.19335,67.5122 C174.19335,67.5122 174.45285,66.256559 174.62835,65.5875932 C175.07085,63.9183709 174.80835,63.0855333 174.80835,62.5868239 C174.80835,61.9178581 175.07085,61.1609265 174.62835,60.0783795 C174.5451,59.7520547 174.45285,59.4172171 174.3636,59.2441231 C174.3636,59.2441231 174.5451,58.5723197 174.62835,58.0764479 C174.80835,57.5791573 174.8991,57.0712256 174.8991,56.5725162 C174.8991,55.6545504 174.5451,54.7323282 174.19335,53.910841 C174.1011,53.6526188 174.01035,53.4007812 173.9196,53.2390376 L173.8356,51.8982684 C173.9196,51.5613026 173.9196,51.5613026 173.9196,50.8923368 C173.9196,50.3936274 173.8356,49.2259521 174.1011,48.7180205 C174.2721,48.4796615 174.3636,48.1434051 174.5451,47.8851829 C174.9816,47.2162171 175.50735,46.3032171 175.50735,45.5569265 C175.50735,45.5569265 176.12535,36.867465 176.12535,36.1133709 L176.12535,35.5295333 C176.2146,34.0248923 176.2146,32.2811829 176.0451,31.0177385 L176.0451,31.3539949 C176.0451,30.5190291 175.68735,29.9351915 175.4271,29.5216103 L175.3371,28.5170974 C175.25385,26.849294 175.25385,24.9324906 173.74485,24.0904308 C172.06635,23.093012 169.1601,22.8376274 168.45135,22.8376274 C167.9241,22.8376274 167.38635,22.9227556 166.7781,22.9993709 C166.33335,22.9993709 165.9786,22.9227556 165.7146,22.9227556 C165.7146,22.9227556 165.00585,22.7588838 164.56185,22.5857897 C163.4181,22.0125932 162.70935,21.6763368 162.00735,21.6763368 C161.3001,21.6763368 161.12835,22.3623282 160.51635,22.6914906 C160.1646,22.7844222 158.9196,22.4240462 158.82735,22.4240462 L157.31985,22.0870803 C156.3561,21.8316957 155.83035,21.6763368 155.2956,21.6763368 C152.8251,21.6763368 147.08235,27.5196786 147.08235,30.1054479 C147.08235,31.1028667 147.52635,32.0229607 148.40835,32.8572171 C150.0891,34.4533709 152.8251,35.2039179 154.1406,35.2039179 C155.12235,35.2039179 156.1026,34.7555761 156.36735,34.7555761 L158.56635,35.9473709 L159.3561,36.1133709 C159.88185,36.2836274 160.1541,36.3715932 160.67985,36.3715932 C160.94685,36.4460803 161.82585,36.5333368 162.00735,36.6120803 L162.62535,37.7896872 C162.62535,37.7896872 162.70935,38.6991402 161.4741,39.368106 L160.8636,39.7050718 L160.5906,40.3740376 C160.2381,41.8020632 160.94685,43.0477726 161.4741,43.8799009 C161.6541,44.1317385 162.00735,44.9624479 162.00735,45.1355419 L161.56335,47.0509265 C161.3001,48.0554393 161.0361,49.1486274 161.11635,50.2311744 L161.82585,51.8982684 C162.00735,52.233106 162.3531,52.9020718 162.3531,52.9020718 C162.3531,52.9020718 160.94685,57.5791573 159.88185,59.4172171 C158.9196,61.0843111 157.5921,62.5868239 156.26685,64.1765932 C155.4771,65.0888838 154.5861,66.0933966 153.7956,67.0986188 C153.17685,68.0087812 151.49835,70.1845162 150.3531,70.1845162 L149.9976,70.1845162 C146.72685,70.1845162 145.58085,70.0213538 145.58085,70.0213538 C143.72835,69.179294 142.49385,67.7597812 140.99685,65.9203026 L140.90535,65.8429778 C140.0226,64.7526274 140.1981,61.2538581 140.2881,59.6577043 C140.2881,59.0830889 140.37735,58.3346701 140.4681,57.5791573 C140.7306,55.5680034 140.8221,54.3989094 140.5491,53.5738752 L140.5491,53.4007812 C140.1981,52.5672342 139.76085,52.0685248 139.4046,51.7343966 C139.1331,51.4761744 139.1331,51.4761744 139.1331,51.1441744 C139.1331,50.7298838 140.1126,46.9728923 140.1126,46.9728923 C140.1981,46.9728923 141.0876,45.8896359 141.1776,45.7981231 L141.61335,44.4637385 C141.87585,43.5450632 141.0876,42.7909692 140.37735,41.8779692 C140.0226,41.4658068 139.76085,40.9578752 139.58685,40.623747 L139.4046,39.9625846 L139.4046,38.3643026 L139.4046,37.9528496 C139.4046,36.4460803 139.6701,35.9473709 140.0226,35.2039179 C140.4681,34.4533709 140.99685,33.5261829 140.99685,31.7746701 C140.99685,30.4417043 140.7306,28.1801316 139.9431,27.1827128 C139.58685,26.6776188 139.23435,26.5924906 138.78735,26.1789094 C136.4976,23.7563026 133.7556,22.2509521 130.66335,22.2509521 C130.12935,22.2509521 129.6021,22.4240462 128.62935,22.5857897 C128.28585,22.6645333 127.91235,23.421465 127.6491,23.421465 L125.63235,22.5006615 C124.3881,22.1658239 123.7791,22.0125932 123.25185,22.0125932 C122.4531,22.0125932 117.51135,23.6690462 117.51135,26.3413624 C117.51135,27.2628752 117.41985,28.6022256 117.24585,29.5996444 C117.1566,30.4417043 117.1566,30.8531573 117.1566,31.1028667 C117.1566,32.1854137 117.77385,33.3637299 119.0181,34.5321145 C120.2451,35.7771145 122.54385,37.203012 124.2141,37.203012 C125.09685,37.203012 125.63235,36.867465 125.98635,36.6120803 C126.4311,36.3715932 127.57635,38.8722342 127.57635,44.0529949 L127.74885,46.7175077 C127.8396,48.6421145 128.02035,50.2311744 128.02035,50.2311744 C127.9311,50.3163026 127.8396,50.8072085 127.74885,50.8923368 C127.57635,51.3059179 127.48485,51.7343966 127.48485,52.3941402 L127.48485,62.2519863 C127.48485,63.3345333 128.1936,63.9183709 128.1936,64.5901744 L128.62935,65.8429778 C128.81235,66.592106 129.1656,67.7597812 129.1656,67.7597812 C129.1656,67.8463282 135.34485,81.4576188 141.61335,81.4576188 C142.14135,81.4576188 142.84935,81.3788752 143.3766,81.2873624 C143.6376,81.2086188 144.0936,80.5304308 144.27285,80.5304308 C144.27285,80.5304308 144.8736,81.3788752 145.22985,81.4576188 C146.01885,81.7073282 146.72685,81.9563282 147.35535,81.9563282 C148.06335,81.9563282 148.7616,81.7073282 149.5536,81.4576188 C149.9061,81.3788752 150.3531,81.1234906 150.5361,81.1234906 L151.6791,81.3788752 C152.38785,81.5455846 152.99535,81.7073282 153.5331,81.7073282 C154.33185,81.7073282 154.76835,81.7073282 155.37585,81.4576188 L155.6481,81.2086188 C156.3561,80.7099094 157.2396,80.204106 158.11935,79.7053966 C159.1731,79.0343026 160.67985,77.9538838 160.67985,77.9538838 C161.3001,77.5296615 162.62535,76.9479521 163.06035,76.4492427 C163.32585,76.1144051 163.49835,76.2846615 163.49835,76.2846615 C163.49835,76.2846615 163.8531,76.6982427 163.95135,77.1189179 C164.12385,77.5296615 164.20785,77.8659179 164.38935,78.1241402 L164.6526,78.5377214 L165.00585,78.6973368 C165.5436,78.9583966 167.13135,79.2066872 167.6586,79.533012 C169.86885,80.6183966 170.57685,80.8737812 171.01335,80.8737812 C171.5376,80.8737812 172.24785,80.7099094 172.4181,80.6183966 L174.19335,81.2086188 C175.7796,81.7073282 176.3976,81.9563282 176.9241,81.9563282 C178.4256,81.9563282 178.76085,81.2433795 180.26085,79.4890291 L181.24935,79.3691402 C181.24935,79.3691402 181.6041,78.6973368 181.86585,78.6973368 C182.9196,78.6973368 183.5496,78.201465 183.9021,77.7878838 C184.3371,77.1189179 184.69335,76.1917299 184.69335,74.9438923" id="Fill-5"></path>
                    <path d="M130.311,75.1084735 C130.311,73.2689949 129.7845,71.9374479 128.721,70.9400291 C127.13025,69.4375162 126.8685,69.9362256 125.6325,69.3516786 L122.80725,69.4375162 C122.09925,69.4375162 120.24525,69.7723538 119.01,70.1064821 C119.01,70.1064821 117.94575,70.5200632 117.59175,70.6832256 C117.429,70.7683538 116.274,70.4413197 116.274,70.4413197 C115.3035,70.1064821 115.3935,69.8482598 114.85725,69.8482598 L113.268,69.8482598 L112.04325,67.8385248 C111.5145,65.8429778 112.21425,64.7526274 112.12275,64.0836615 L112.4775,61.5830205 C113.00475,59.9159265 113.268,59.1589949 113.268,58.6631231 C113.268,57.6642855 112.9215,56.9939009 112.5675,56.6576444 C112.3965,56.1582256 112.12275,55.7304564 112.7505,53.2390376 C112.9215,52.482106 112.65975,50.988106 112.65975,50.988106 C112.65975,50.815012 112.3965,50.0587897 112.305,49.8949179 C112.04325,49.3869863 111.68775,48.4796615 111.59775,48.2214393 L112.12275,46.8806701 C112.5675,45.6321231 112.9215,44.9624479 112.9215,44.2934821 C112.9215,43.3811915 112.5675,42.7973538 112.12275,42.128388 C111.7695,41.2941316 111.33375,40.2889094 111.33375,38.0379778 C111.243,37.6165932 111.41475,34.9428581 111.33375,32.5216701 L111.41475,29.0221915 C111.41475,29.0221915 111.68775,28.4319692 111.95175,28.0950034 C112.21425,27.5111658 112.5675,26.849294 112.7505,26.0072342 C112.9215,25.0949436 112.8315,24.0904308 112.7505,23.2575932 C112.65975,22.8376274 112.65975,22.0870803 112.65975,22.0870803 C112.7505,21.4181145 113.09625,20.5838581 113.54175,19.8368581 C114.3315,17.6646701 114.684,16.9169607 114.684,16.2451573 C114.684,15.5761915 114.24975,14.8192598 113.35875,13.6579692 C113.18775,13.3231316 112.9215,12.8166188 112.8315,12.6541658 C112.8315,12.6541658 112.4775,10.8913026 112.21425,9.80875556 C111.7695,8.22749915 111.33375,6.63914872 111.16125,5.2196359 L111.06075,4.71454188 L110.70675,4.38041368 C110.4525,4.21583248 108.9435,2.71119145 107.53575,2.71119145 C106.482,2.79631966 106.20975,2.71119145 105.3285,3.46812308 L104.18325,3.46812308 C104.18325,3.46812308 103.7385,2.71119145 102.59325,2.71119145 C101.70225,2.71119145 100.55775,2.53809744 100.203,2.87506325 L98.088,3.04744786 C96.588,2.21248205 96.49875,2.12735385 95.70825,2.12735385 C95.17125,2.12735385 94.81725,2.30044786 94.47075,2.37564444 L92.973,1.71377265 C91.638,0.959678632 91.029,0.709259829 90.41025,0.709259829 C86.79525,0.795806838 84.1425,6.88672991 84.225,9.56826838 C84.225,13.4877128 86.70525,14.741935 88.64775,15.8251915 C88.90275,15.8251915 90.12,15.6613197 90.3825,15.8344137 C90.56625,15.9103197 90.78225,16.9339863 90.9645,17.1815675 C91.57425,17.8533709 92.18175,17.5951487 92.75475,17.6646701 C92.75475,17.6646701 92.81775,17.4397897 93.44475,17.2773368 C93.44475,17.2773368 95.0895,18.2378667 95.96175,18.2378667 C96.85275,18.2378667 96.9435,17.5767043 97.6515,17.0779949 L98.17875,18.0825077 C98.3595,18.6592513 98.44125,19.3310547 98.7135,20.0000205 C98.7135,20.0000205 99.4125,21.6763368 100.032,22.5006615 L100.4685,23.5917214 C100.203,24.0904308 99.3585,24.5543795 99.3585,25.2233453 C99.3585,25.6369265 99.95025,26.3413624 100.032,26.7549436 C100.12275,27.2628752 100.12275,28.018388 100.12275,28.3532256 L99.678,29.4364821 C99.24075,30.0203197 98.96775,30.6829009 98.96775,31.3539949 C98.96775,32.6926359 99.849,33.5261829 100.386,34.1100205 C100.82325,34.6172427 100.99425,34.7726017 100.99425,35.1932769 C100.99425,35.1932769 100.74,35.9402769 100.55775,36.3715932 C100.386,36.9447897 100.12275,37.5392684 100.12275,38.1153026 C99.768,39.5319778 100.032,41.0359094 100.2945,42.128388 C100.2945,42.3766786 100.74,44.1317385 100.74,44.2934821 L100.55775,48.1434051 C100.55775,48.8904051 100.4685,49.5622085 100.4685,50.2205333 C100.386,50.8923368 100.2945,51.5613026 100.2945,52.3118496 C100.12275,53.4766872 99.95025,54.6564222 99.95025,55.823388 L101.08575,56.8647897 C101.2575,57.1904051 100.386,58.2389009 100.386,58.4112855 C100.386,58.6631231 100.64775,59.2441231 100.386,59.6577043 C100.203,60.1663453 100.032,60.7473453 99.95025,61.4163111 C99.95025,62.4243709 99.849,63.4118581 99.768,64.3390462 C99.678,65.0101402 99.59475,65.6798154 99.59475,66.0933966 C99.59475,66.5147812 98.96775,67.0042684 98.96775,67.4242342 C98.88675,68.0087812 98.79525,69.1005504 98.5335,69.3516786 L97.0245,68.843747 C95.5245,68.3450376 95.17125,68.6805846 94.6455,68.6805846 C94.38075,68.6805846 93.50025,68.3450376 93.05475,68.4315846 C91.8195,68.601841 90.93825,68.843747 90.5925,68.843747 C90.5925,68.843747 90.2385,68.7657128 89.88375,68.601841 C88.82025,68.4315846 88.3755,68.4315846 87.83925,68.4315846 C86.16825,68.4315846 84.93225,69.2644222 84.1425,70.3469692 C83.96025,70.3469692 83.7885,70.3469692 83.61525,70.4413197 C83.61525,70.4413197 82.55175,70.8549009 82.19775,71.0187726 C82.01625,71.1039009 80.88,70.7683538 80.88,70.7683538 C79.90125,70.4413197 79.9905,70.1845162 79.464,70.1845162 L77.874,70.1845162 L77.16675,68.1733624 C76.54725,66.1785248 76.81125,65.0888838 76.72875,64.4170803 L77.0835,61.9178581 C77.6115,60.2486359 77.874,59.4945419 77.874,58.9958325 C77.874,58.0005419 77.52,57.3287385 77.25675,56.9939009 C76.9845,56.4951915 76.72875,56.0667128 77.3385,53.5738752 C77.52,52.8077214 77.25675,51.3059179 77.25675,51.3059179 C77.25675,51.1441744 76.9845,50.3936274 76.90125,50.2205333 C76.63875,49.7218239 76.28475,48.8123709 76.1925,48.5541487 L76.81125,47.2162171 C77.16675,45.9683795 77.52,45.2994137 77.52,44.6276103 C77.52,43.7181573 77.16675,43.1229692 76.81125,42.4618068 C76.3755,41.6296786 75.93,40.623747 75.93,38.3706872 C75.93,37.9528496 76.02075,35.2784051 76.02075,32.8572171 L76.02075,29.3577385 C76.02075,29.3577385 76.28475,28.7646786 76.54725,28.4319692 C76.81125,27.8467128 77.16675,27.1827128 77.3385,26.3413624 C77.52,25.4312 77.43825,24.4252684 77.3385,23.5917214 C77.25675,23.1696274 77.25675,22.4240462 77.25675,22.4240462 C77.3385,21.7550803 77.6925,20.9101829 78.13725,20.1624735 C78.93675,17.9995077 79.281,17.2432855 79.281,16.5821231 C79.281,15.9103197 78.83625,15.1562256 78.04575,13.994935 C77.79225,13.6579692 77.52,13.1528752 77.43825,12.9875846 C77.43825,12.9875846 77.0835,11.2282684 76.81125,10.145012 C76.3755,8.56375556 75.93,6.9647641 75.74775,5.55660171 L75.666,5.04937949 L75.31125,4.71454188 C75.0405,4.55067009 73.5495,3.04744786 72.13125,3.04744786 C71.07,3.13257607 70.81425,3.04744786 69.924,3.80225128 L68.78025,3.80225128 C68.78025,3.80225128 68.33475,3.04744786 67.19025,3.04744786 C66.30825,3.04744786 65.1645,2.87506325 64.80975,3.20990085 L62.694,3.38299487 C61.18425,2.53809744 60.48525,2.46077265 59.6865,2.46077265 C59.15625,2.46077265 58.719,2.63386667 58.365,2.71119145 L56.77425,2.05002906 C55.3575,1.29451624 54.744,1.04480684 54.12225,1.04480684 C50.2425,1.13206325 46.26825,7.22298632 46.35525,9.89388376 C46.44525,13.821841 49.00725,15.0774821 51.033,16.1600291 C51.30225,16.1600291 52.60425,16.6828581 52.878,16.8488581 C53.04975,16.9410803 53.0415,17.3014564 53.2185,17.5419436 C53.8365,18.213747 54.36225,18.2648239 55.5075,18.2648239 C56.48325,18.2648239 56.90175,17.4397897 57.51525,17.2773368 C57.51525,17.2773368 59.06775,18.5741231 60.0405,18.5741231 C60.9225,18.5741231 61.539,17.9122513 62.238,17.4135419 L62.775,18.4187641 C62.94825,18.9947983 63.039,19.6666017 63.30225,20.3355675 C63.30225,20.3355675 64.01025,22.0019521 64.63875,22.8376274 L65.073,23.926559 C64.80975,24.4252684 64.01025,24.915465 64.01025,25.586559 C64.01025,25.998012 64.5375,26.6776188 64.63875,27.0912 C64.719,27.596294 64.80975,28.3532256 64.719,28.6873538 L64.28475,29.7699009 C63.83925,30.3565761 63.5745,31.0177385 63.5745,31.6867043 C63.657,33.0274735 64.4565,33.8603111 64.99275,34.4469863 C65.42775,34.9428581 65.60025,35.1081487 65.60025,35.5295333 C65.60025,35.5295333 65.33775,36.2758239 65.1645,36.7064308 C64.99275,37.2810462 64.80975,37.8748154 64.719,38.4494308 C64.365,39.8682342 64.63875,41.3714564 64.99275,42.4618068 C64.99275,42.7122256 65.33775,44.4637385 65.33775,44.6276103 L65.1645,48.4796615 C65.1645,49.2259521 65.073,49.8949179 65.073,50.5574991 C64.99275,51.2293026 64.89075,51.8982684 64.89075,52.6466872 C64.719,53.813653 64.5375,54.9841658 64.5375,56.1582256 L65.5455,57.2265846 C65.718,57.5522 64.99275,58.5723197 64.99275,58.7482513 C64.99275,58.9958325 65.247,59.5796701 64.99275,59.9932513 C64.80975,60.4919607 64.63875,61.0843111 64.63875,61.7554051 C64.5375,62.7599179 64.4565,63.7481145 64.365,64.6753026 C64.28475,65.347106 64.1835,66.0082684 64.28475,66.429653 C64.1835,66.8503282 64.10175,67.3398154 64.10175,67.7597812 C64.01025,68.3450376 63.3945,69.4375162 63.129,69.684388 L61.539,69.179294 C60.30975,68.6805846 60.0405,69.0154222 59.601,69.0154222 C59.33175,69.0154222 58.623,68.6805846 58.269,68.7657128 C57.3015,68.930294 57.4785,69.179294 57.3015,69.179294 C57.3015,69.179294 56.95125,69.1005504 56.59725,68.930294 C55.71225,68.7657128 55.4535,68.7657128 54.92025,68.7657128 C51.741,68.7657128 50.59575,73.1923795 50.59575,75.1084735 C50.59575,76.5251487 50.32575,77.8659179 51.30225,78.8704308 C52.4445,79.8678496 53.23575,80.5368154 54.744,80.5368154 C55.179,80.5368154 56.511,80.4516872 57.38925,80.1168496 C57.74175,79.9529778 58.44675,79.7827214 58.623,79.7053966 L59.8635,80.204106 C60.21375,80.8737812 61.01325,81.1234906 61.44975,81.1234906 C61.98375,81.0383624 62.1585,81.2086188 62.775,80.9503966 C63.039,80.8737812 64.1835,80.5368154 64.4565,80.788653 C65.7825,81.4576188 66.48075,81.8775846 67.272,81.8775846 C67.80825,81.8775846 68.33475,81.6207812 69.39825,81.2873624 C69.75225,81.1234906 70.461,80.8737812 70.632,80.788653 C70.632,80.788653 71.16075,81.0383624 72.13125,81.1234906 C75.22125,81.4576188 76.28475,81.5455846 76.63875,81.5455846 C77.16675,81.5455846 77.6925,81.4576188 78.483,81.2086188 C78.66525,81.1234906 79.37325,80.9503966 79.37325,80.9503966 C79.37325,80.9503966 81.408,81.2873624 82.19775,81.3724906 C84.051,81.7924564 83.7885,81.9563282 84.1425,81.9563282 C84.57975,81.9563282 85.2045,81.7073282 86.52225,81.2086188 C87.05025,81.0383624 88.90275,80.788653 88.90275,80.788653 C89.34825,80.9503966 89.88375,81.1234906 90.49275,81.1234906 C91.2825,81.1234906 91.99125,80.7099094 92.61825,80.0409436 C92.7,79.9529778 92.87325,79.7827214 92.973,79.6273624 L93.58125,79.8678496 C93.936,80.5368154 94.81725,80.788653 95.27025,80.788653 C95.7885,80.7099094 96.49875,80.8737812 97.11525,80.6183966 C97.11525,80.6183966 97.90575,80.204106 98.17875,80.4516872 C99.50475,81.1234906 100.203,81.5455846 100.99425,81.5455846 C101.5305,81.5455846 102.05625,81.2873624 103.1205,80.9503966 C103.47375,80.788653 104.3565,80.5368154 104.53725,80.4516872 C104.53725,80.4516872 106.56375,80.7099094 107.53575,80.788653 C110.625,81.1234906 111.68775,81.2086188 112.04325,81.2086188 C112.5675,81.2086188 113.09625,81.1234906 113.89575,80.8737812 C114.0675,80.788653 114.77775,80.6183966 114.77775,80.6183966 C114.77775,80.6183966 116.80125,80.9503966 117.59175,81.0383624 C119.45475,81.4576188 119.1825,81.6207812 119.5365,81.6207812 C119.98125,81.6207812 120.60075,81.3724906 121.917,80.8737812 C122.45325,80.7099094 124.317,80.4516872 124.317,80.4516872 C124.752,80.6183966 125.27775,80.788653 125.90475,80.788653 C126.69375,80.788653 127.40475,80.3743624 128.013,79.7053966 C129.24825,78.5377214 130.311,76.1917299 130.311,75.1084735" id="Fill-7"></path>
                    <path d="M36.705675,59.6235111 L36.269925,63.713212 C36.269925,64.5488872 34.148925,64.9596308 33.172425,65.8016906 C32.462925,66.127306 30.883425,67.2197846 30.883425,67.2197846 C30.438675,67.4687846 29.647425,67.967494 27.617925,71.3179983 C27.525675,71.5584855 26.912175,71.9798701 26.735925,71.9798701 C26.639175,71.9798701 26.204925,71.8947419 25.848675,71.8167077 C25.141425,71.7315795 23.824425,71.6436137 23.375175,71.6436137 C22.847175,71.6436137 21.880425,71.8947419 20.372175,72.3061949 C19.937175,72.4005453 19.626675,72.9936051 19.358175,73.0723487 C19.272675,72.9070581 17.814675,72.6147846 17.645175,72.5388786 C16.316925,71.7046222 16.974675,71.7223573 15.818925,71.7223573 L14.007675,71.3619812 C13.039425,70.9505282 12.882675,70.0034769 11.905425,68.9209299 C11.646675,68.6627077 11.968425,67.7262974 11.618925,67.4687846 C11.177925,67.1332376 11.992425,66.6331094 11.992425,66.0492718 C11.992425,66.0492718 11.468175,65.1738701 12.612675,64.0913231 C13.403175,63.0002632 13.571175,62.5192889 13.571175,62.5192889 L14.966175,62.5604342 C14.966175,62.5604342 15.845925,61.8297504 16.111425,61.7382376 L18.340425,60.9550581 C18.967425,60.5329641 19.318425,60.1981265 19.663425,59.9597675 C19.839675,59.9597675 20.285925,59.7866735 21.253425,59.7866735 C21.960675,59.7866735 22.670175,59.0304513 23.470425,59.1155795 C23.470425,59.1155795 25.935675,59.3730923 26.993925,59.3730923 C28.052925,59.3730923 31.142175,58.6189983 33.875925,57.6109385 C34.148925,57.4499043 34.763175,57.3697419 34.938675,57.2782291 C35.207925,57.3697419 35.470425,57.1143573 35.470425,57.1994855 C35.915175,57.2782291 36.174675,57.1143573 36.269925,57.3697419 C36.269925,57.3697419 36.615675,58.3678701 36.705675,59.6235111 M58.223925,70.5539726 C57.974925,70.4837419 57.515175,69.2401607 56.960925,69.1280752 C56.278425,68.9890325 55.970175,68.8968103 55.375425,68.5860923 C54.521925,68.1306564 54.236175,68.7747932 53.489925,68.4314427 C52.540425,67.967494 52.354425,68.2760838 51.832425,68.3782376 C50.579175,68.6187248 51.255675,68.8187761 50.447925,69.2401607 C49.496925,69.7360325 49.397925,71.0008957 49.397925,71.0008957 C49.397925,71.0008957 47.657925,71.9798701 47.561925,70.2269385 L47.031675,68.8861692 C46.772175,67.967494 45.713925,67.1332376 46.241175,66.7991094 L47.302425,64.9596308 C47.385675,64.2878274 47.830425,63.7919556 47.657925,63.1293744 C47.302425,62.5426991 47.127675,61.7964085 47.031675,61.5388957 C47.031675,61.5388957 46.640175,60.1803915 46.817925,59.9321009 C47.258175,59.2617162 47.657925,59.2879641 47.657925,58.6189983 C47.481675,57.2782291 47.302425,56.3673573 47.830425,55.0251692 C48.272175,54.113588 47.385675,52.5167248 47.385675,52.5167248 C47.657925,51.0120838 48.362175,51.1944 48.272175,48.7611521 C48.184425,47.7530923 48.770925,46.8805282 47.953425,45.9774598 C47.953425,45.9774598 47.507925,45.4879726 47.675925,45.3233915 L48.272175,44.301853 C48.431175,43.6328872 48.407175,42.8759556 48.030675,42.0495026 L47.481675,41.3975624 L47.544675,40.3909214 C47.873175,39.4729556 47.675925,38.7245368 47.657925,37.9704427 C47.431425,36.1373487 45.059175,32.0327504 45.059175,32.0327504 C44.418675,31.3850667 44.187675,30.5266906 43.560675,30.1315538 C43.115925,29.8910667 42.539175,29.8577248 42.448425,29.693853 C42.270675,29.6158188 42.203175,28.9986393 42.203175,28.8347675 C41.738175,28.0884769 41.190675,27.5110239 40.212675,27.1244 C40.212675,27.1244 38.863425,26.4043573 38.250675,26.3341265 C37.805925,26.2653145 37.273425,26.1879897 36.920175,26.034759 L36.287925,25.5424342 C35.915175,24.9656906 35.293425,24.735135 34.493925,24.5811949 C34.493925,24.5811949 33.518175,24.4428615 32.632425,24.4598872 C32.109675,24.4776222 31.571925,24.3137504 31.133175,24.4159043 C30.955425,24.5038701 30.875175,24.5038701 30.784425,24.5038701 L29.711175,24.1144085 C28.816425,23.6355624 28.380675,23.5766821 27.671925,23.5915795 C26.531925,23.6178274 26.141175,24.4095197 25.360425,25.0096735 C25.192425,25.1820581 23.646675,25.1820581 23.375175,25.1054427 C22.938675,25.0266991 22.670175,24.9493744 22.055925,24.9656906 C21.430425,24.9763316 20.957175,25.0437248 19.562925,25.6651607 C19.040925,25.8517333 17.933175,25.8517333 17.933175,25.8517333 C17.933175,25.8517333 17.141175,25.9567248 16.788675,25.8779812 C16.083675,25.7219128 14.879175,25.4920667 14.353425,25.5083829 C13.385175,25.5254085 13.004175,26.6866991 11.609925,27.3904256 C11.264175,27.640135 10.619925,27.5351436 10.182675,27.8040068 C10.005675,27.889135 9.641925,28.8695282 9.469425,28.9546564 C7.998675,29.9932205 7.615425,31.3850667 6.362925,31.2488615 C6.107925,31.2226137 5.012925,31.8837761 4.845675,32.0561607 C3.809925,32.9159556 3.134175,34.0247504 3.134175,34.0247504 C2.442675,34.8753231 1.962675,36.3884769 1.979925,37.0574427 C1.979925,37.1347675 1.907925,37.6412803 1.907925,37.8037333 C1.875675,40.1504342 1.962675,42.9873316 2.796675,44.7218188 C3.365175,46.1306906 6.516675,48.3064256 8.103675,48.271665 C8.548425,48.2624427 8.666175,47.8758188 9.115425,47.867306 C9.551175,47.8516991 9.905175,47.5232462 10.128675,48.0552974 C10.128675,48.0552974 10.574175,48.2106564 10.847925,48.2894 C11.550675,48.4355368 12.175425,48.5908957 12.704925,48.5809641 C14.120925,48.5376906 16.424925,45.8987162 16.583175,44.980041 C16.806675,43.6328872 17.009175,41.3713145 16.991175,40.6995111 C16.964175,39.7049299 16.424925,39.0529897 16.065675,38.7245368 C15.701175,38.322306 15.525675,38.322306 15.506175,37.7363402 C15.489675,36.9794085 16.183425,36.6360581 16.270425,36.5509299 L18.632925,35.7876137 C19.599675,35.7606564 21.676425,37.2135111 22.360425,36.4388444 C22.360425,36.4388444 22.975425,36.2593658 23.247675,36.4218188 C24.233925,37.0673744 23.888175,37.4873402 25.031925,37.4603829 C25.654425,37.4539983 26.967675,37.0844 27.926925,36.5587333 L28.976175,36.6268359 C29.606175,36.9446479 29.180175,37.2879983 29.888175,37.4369726 C30.605925,37.589494 31.583175,37.7292462 32.286675,37.7973487 L33.589425,37.5043658 C35.462175,38.3024427 35.384175,40.743494 35.562675,42.0842632 C35.562675,42.7532291 34.938675,45.8419641 34.763175,47.3423487 L33.785925,47.7637333 C33.136425,48.4355368 32.063175,47.4111607 31.628925,47.4111607 C30.742425,47.4111607 30.483675,47.4537248 28.139175,49.1818274 L26.912175,49.5954085 C26.027925,49.931665 25.913175,49.9799043 25.476675,50.5743829 C25.299675,50.6517077 24.269925,49.9799043 24.269925,49.9799043 C23.033175,49.4067077 21.914925,50.8921949 21.207675,50.8921949 C18.827925,50.8921949 18.918675,50.1700239 17.551425,51.6902718 C17.551425,51.6902718 14.666925,51.8364085 14.335425,51.9747419 C13.199925,52.4379812 12.935175,51.8711692 11.468175,52.5167248 C10.034175,53.1537675 10.286925,54.1575709 9.931425,54.3214427 C10.023675,54.3214427 8.984175,53.9426222 8.984175,53.9426222 C8.903175,53.9426222 8.452425,54.0220752 8.193675,54.0220752 C7.307925,54.113588 5.726925,55.5941094 5.726925,55.5941094 C2.910675,56.9242376 -7.49999998e-05,63.6536222 -7.49999998e-05,64.8986222 C-7.49999998e-05,65.567588 0.302925,66.2663487 0.575175,66.9353145 C0.835425,67.4340239 0.248925,67.8887504 0.331425,68.3023316 C0.331425,68.8088444 0.427425,69.4778103 0.427425,70.0552632 C0.508425,70.8121949 0.508425,71.4825795 0.603675,72.0649983 C0.603675,72.0649983 1.484925,74.7387333 2.714925,75.4076991 L3.515175,75.8219897 C3.773925,75.9851521 4.659675,76.5689897 4.659675,76.5689897 C5.459175,77.9948872 6.516675,79.1625624 7.570425,79.576853 C8.452425,79.9116906 9.056175,79.5527333 9.931425,79.6272205 C10.733175,79.8003145 11.813175,80.7445282 11.813175,80.7445282 C12.073425,80.9176222 12.518175,81.1552718 12.872925,81.413494 C14.462925,82.420135 15.428925,82.9188444 16.316925,82.9188444 C17.283675,82.9188444 17.990925,82.4988786 18.790425,82.0852974 C18.872175,82.0001692 20.640675,81.4922376 20.727675,81.4922376 L26.993925,81.2524598 C27.171675,81.2524598 27.525675,81.2524598 27.971175,81.3283658 C28.406925,81.413494 28.940175,81.4922376 29.374425,81.4922376 C30.614925,81.4922376 31.415175,81.0793658 31.850175,80.9176222 L32.640675,80.3337846 C32.993925,79.9116906 33.703425,79.327853 33.971925,79.2427248 L34.763175,79.0774342 C35.648175,78.9071778 36.801675,78.7411778 37.673175,77.909759 L37.673175,77.9948872 C38.383425,77.4004085 38.828925,76.7314427 39.003675,76.4058274 C39.003675,76.4058274 40.504425,76.7314427 41.207175,77.1528274 L42.092925,78.1573402 C42.448425,78.6666906 42.884175,79.327853 43.507425,79.7492376 C45.182175,80.7445282 46.241175,81.2524598 47.561925,81.2524598 C48.093675,81.2524598 50.295675,81.1552718 50.570175,81.0793658 L51.886425,80.7445282 C52.691175,81.0793658 52.772925,81.3283658 53.304675,81.3283658 C54.272175,81.3283658 55.683675,80.0755624 55.951425,79.9116906 L57.805425,77.909759 L58.774425,76.4058274 C58.774425,75.9851521 59.572425,74.5656393 59.750925,74.2400239 C59.572425,72.4005453 59.377425,73.1071094 59.731425,72.5296564 C58.640175,72.9070581 60.830925,71.276853 58.223925,70.5539726" id="Fill-10"></path>
                    <polygon id="Fill-13" points="152.07015 9.50023675 152.07015 11.0644675 154.57665 11.0644675 154.57665 16.975912 156.4659 16.975912 156.4659 11.0644675 158.9649 11.0644675 158.9649 9.50023675"></polygon>
                    <polygon id="Fill-15" points="164.7612 9.50023675 164.7612 12.2427838 161.71545 12.2427838 161.71545 9.50023675 159.85695 9.50023675 159.85695 16.975912 161.71545 16.975912 161.71545 13.8389376 164.7612 13.8389376 164.7612 16.975912 166.61595 16.975912 166.61595 9.50023675"></polygon>
                    <polygon id="Fill-17" points="167.7231 9.50023675 167.7231 16.975912 172.62885 16.975912 172.62885 15.4123906 169.5501 15.4123906 169.5501 13.9240658 172.1466 13.9240658 172.1466 12.3960145 169.5501 12.3960145 169.5501 11.0552453 172.58235 11.0552453 172.58235 9.50023675"></polygon>
                    <path d="M177.288525,16.9673282 L177.288525,9.50938803 L179.723025,9.50938803 C180.643275,9.50938803 181.331775,9.66403761 181.804275,9.98184957 C182.276025,10.3010803 182.513775,10.7735419 182.513775,11.3985248 C182.513775,11.7759265 182.403525,12.1029607 182.185275,12.3689863 C181.976025,12.6364308 181.647525,12.8442855 181.224525,12.9826188 C181.696275,13.0918667 182.077275,13.299012 182.349525,13.6246274 C182.612025,13.9417299 182.758275,14.3382855 182.758275,14.7951402 C182.758275,15.5123453 182.475525,16.0550376 181.914525,16.4246359 C181.350525,16.7878496 180.521775,16.9673282 179.426025,16.9673282 L177.288525,16.9673282 Z M178.996275,12.4569521 L179.623275,12.4569521 C179.993775,12.4569521 180.278025,12.3789179 180.496275,12.2228496 C180.704775,12.0767128 180.805275,11.8560889 180.805275,11.5886444 C180.805275,11.3048838 180.714525,11.0991573 180.514275,10.9700462 C180.314775,10.840935 180.005775,10.7735419 179.588025,10.7735419 L178.996275,10.7735419 L178.996275,12.4569521 Z M178.996275,15.626559 L179.777025,15.626559 C180.158025,15.626559 180.460275,15.5322085 180.666525,15.3598239 C180.886275,15.1796359 180.994275,14.9483709 180.994275,14.6397812 C180.994275,14.3382855 180.895275,14.1141145 180.685275,13.9417299 C180.467025,13.7870803 180.170025,13.7019521 179.777025,13.7019521 L178.996275,13.7019521 L178.996275,15.626559 Z" id="Fill-19"></path>
                    <polygon id="Fill-21" points="183.6474 9.50023675 183.6474 16.975912 188.55315 16.975912 188.55315 15.4123906 185.4744 15.4123906 185.4744 13.9240658 188.06115 13.9240658 188.06115 12.3960145 185.4744 12.3960145 185.4744 11.0552453 188.5089 11.0552453 188.5089 9.50023675"></polygon>
                    <path d="M193.132275,9.27677521 L189.118275,16.975912 L191.006775,16.975912 L191.516775,15.8848521 L194.714025,15.8848521 L195.224025,16.975912 L197.194275,16.975912 L193.259775,9.27677521 L193.132275,9.27677521 Z M193.107525,12.2605188 L194.134275,14.5958692 L192.059775,14.5958692 L193.107525,12.2605188 Z" id="Fill-23"></path>
                    <path d="M199.09275,9.50924615 L199.09275,13.6074598 C199.09275,14.270041 199.22925,14.7581094 199.47375,15.0837248 C199.74,15.4206906 200.1195,15.5760496 200.6385,15.5760496 C201.14625,15.5760496 201.52725,15.4299128 201.78225,15.1213231 C202.0545,14.8098957 202.1805,14.3707761 202.1805,13.7975795 L202.1805,9.50924615 L203.8635,9.50924615 L203.8635,13.7975795 C203.8635,14.8631009 203.574,15.7115453 202.98225,16.3067333 C202.39875,16.9075966 201.59025,17.2161863 200.556,17.2161863 C199.5015,17.2161863 198.684,16.9168188 198.1125,16.3131179 C197.52075,15.7200581 197.2395,14.8872205 197.2395,13.8039641 L197.2395,9.50924615 L199.09275,9.50924615 Z" id="Fill-25"></path>
                    <polygon id="Fill-27" points="204.67965 9.50023675 204.67965 11.0644675 207.18765 11.0644675 207.18765 16.975912 209.06865 16.975912 209.06865 11.0644675 211.56615 11.0644675 211.56615 9.50023675"></polygon>
                    <polygon id="Fill-29" points="217.9614 9.50023675 216.1434 11.8703479 214.49265 9.50023675 212.2209 9.50023675 215.0379 13.428194 215.0379 16.975912 216.91815 16.975912 216.91815 13.3579632 219.9609 9.50023675"></polygon>
                    <polygon id="Fill-31" points="223.857375 9.50023675 223.857375 16.975912 228.754125 16.975912 228.754125 15.4123906 225.684375 15.4123906 225.684375 13.9240658 228.280875 13.9240658 228.280875 12.3960145 225.684375 12.3960145 225.684375 11.0552453 228.717375 11.0552453 228.717375 9.50023675"></polygon>
                    <polygon id="Fill-33" points="234.9243 9.50023675 233.38755 11.6390829 231.77055 9.50023675 229.46355 9.50023675 232.26105 13.1089632 229.4283 16.975912 231.4893 16.975912 233.3073 14.4433479 235.21305 16.975912 237.5403 16.975912 234.4323 12.9528949 236.96655 9.50023675"></polygon>
                    <path d="M238.174725,16.9673282 L238.174725,9.50938803 L240.200475,9.50938803 C240.828975,9.50938803 241.317975,9.55195214 241.689975,9.63708034 C242.055225,9.72362735 242.382975,9.8697641 242.671725,10.0776188 C242.952975,10.2741231 243.189225,10.5217043 243.344475,10.8317128 C243.507975,11.1232769 243.590475,11.4517299 243.590475,11.7950803 C243.590475,12.5420803 243.298725,13.143653 242.737725,13.5877385 C242.163225,14.0289863 241.400475,14.2531573 240.429225,14.2531573 L240.200475,14.2531573 C240.144975,14.2531573 240.100725,14.2418068 240.055725,14.2418068 L240.055725,16.9673282 L238.174725,16.9673282 Z M240.318975,10.8756957 L240.055725,10.8756957 L240.055725,12.8705333 L240.401475,12.8705333 C240.873225,12.8705333 241.237725,12.7825675 241.492725,12.6030889 C241.735725,12.4399265 241.872225,12.1817043 241.872225,11.8560889 C241.872225,11.5191231 241.735725,11.2694137 241.500225,11.1055419 C241.246725,10.9530205 240.855225,10.8756957 240.318975,10.8756957 Z" id="Fill-35"></path>
                    <polygon id="Fill-37" points="244.55415 9.50023675 244.55415 16.975912 249.4494 16.975912 249.4494 15.4123906 246.36915 15.4123906 246.36915 13.9240658 248.9679 13.9240658 248.9679 12.3960145 246.36915 12.3960145 246.36915 11.0552453 249.4029 11.0552453 249.4029 9.50023675"></polygon>
                    <path d="M250.476525,16.9673282 L250.476525,9.50938803 L252.502275,9.50938803 C253.157025,9.50938803 253.655025,9.54131111 254.009775,9.62927692 C254.374275,9.71440513 254.690775,9.84351624 254.973525,10.0336359 C255.265275,10.2301402 255.491025,10.480559 255.653025,10.7636103 C255.808275,11.0643966 255.890775,11.3744051 255.890775,11.7000205 C255.890775,12.1646786 255.763275,12.5754222 255.508275,12.9294137 C255.265275,13.2883709 254.898525,13.5636188 254.420025,13.7714735 L256.834275,16.9673282 L254.681775,16.9673282 L252.575775,14.0360803 L252.310275,14.0360803 L252.310275,16.9673282 L250.476525,16.9673282 Z M252.619275,10.8650547 L252.310275,10.8650547 L252.310275,12.9294137 L252.701775,12.9294137 C253.175025,12.9294137 253.538025,12.8442855 253.793025,12.663388 C254.037525,12.4810718 254.174025,12.216465 254.174025,11.8802085 C254.174025,11.5191231 254.037525,11.2694137 253.800525,11.1055419 C253.555275,10.9437983 253.164525,10.8650547 252.619275,10.8650547 Z" id="Fill-39"></path>
                    <polygon id="Fill-41" points="256.671375 9.50023675 256.671375 11.0644675 259.187625 11.0644675 259.187625 16.975912 261.077625 16.975912 261.077625 11.0644675 263.567625 11.0644675 263.567625 9.50023675"></polygon>
                </g>
            </g>
        </g>
    </g>
</svg>