<svg width="971" height="273" viewBox="0 0 971 273" fill="none" xmlns="http://www.w3.org/2000/svg">
<path fill-rule="evenodd" clip-rule="evenodd" d="M314.227 2.62867C267.291 14.0257 249.576 72.6767 283.668 103.807C306.398 124.562 344.259 122.64 369.297 99.4597C376.583 92.7137 376.677 91.5717 370.382 86.2637C363.927 80.8207 363.376 80.9547 359.62 88.8767C338.691 133.025 285.971 109.61 285.839 56.1067C285.732 12.3797 319.571 -5.83633 347.685 22.8147C356.115 31.4057 355.838 31.3577 363.387 25.5487C370.487 20.0847 370.713 18.4717 365.061 13.5947C352.524 2.77467 331.927 -1.66833 314.227 2.62867ZM573.823 2.72067C535.555 11.9717 515.015 54.8437 532.375 89.2337C549.527 123.212 599.943 128.146 630.061 98.7917C636.528 92.4887 636.561 91.3397 630.422 86.1997C624.015 80.8357 623.392 80.9997 619.541 89.0767C598.448 133.316 545.958 109.458 545.904 55.6067C545.861 12.4227 579.856 -5.64233 607.772 22.7297C616.14 31.2347 616.043 31.2077 622.195 26.6917C631.375 19.9527 631.429 19.7577 625.623 14.3077C613.221 2.66367 592.88 -1.88633 573.823 2.72067ZM1.31096 5.08767C1.31096 5.62667 2.38196 6.33767 3.69096 6.66567C4.99896 6.99467 7.58696 8.82767 9.44096 10.7407L12.811 14.2177V60.1067V105.996L9.44096 109.473C7.58696 111.386 4.99896 113.219 3.69096 113.548C-4.15204 115.516 3.95896 116.107 38.832 116.107H76.354L77.299 113.857C78.547 110.887 81.377 90.8297 80.646 90.1427C80.333 89.8477 79.567 90.4407 78.944 91.4607C73.546 100.294 71.889 102.4 68.286 105.01C63.259 108.651 57.196 109.912 42.811 110.306L31.811 110.607V62.9297C31.811 9.22567 31.404 12.0987 39.639 7.60667C45.587 4.36167 44.322 4.10667 22.311 4.10667C9.24996 4.10667 1.31096 4.47767 1.31096 5.08767ZM134.311 4.83067C134.311 5.25767 135.931 6.89867 137.91 8.47867C142.146 11.8577 147.311 19.6117 147.311 22.5907C147.311 26.0697 112.803 102.239 109.379 106.318C107.665 108.36 104.024 111.057 101.287 112.313C93.822 115.737 94.896 116.107 112.311 116.107C122.311 116.107 128.311 115.732 128.311 115.107C128.311 114.557 127.601 114.107 126.734 114.107C119.604 114.107 118.094 105.953 123.156 94.7887L126.186 88.1067H149.225C175.756 88.1067 173.25 87.1117 177.459 99.3097L179.772 106.013L177.72 108.81C176.591 110.348 174.238 112.251 172.49 113.037C166.599 115.689 169.232 116.107 191.811 116.107C214.142 116.107 218.01 115.483 210.68 113.064C200.547 109.719 200.365 109.391 180.346 58.1607C164.873 18.5657 164.164 16.4447 164.48 10.6607L164.811 4.60667L149.561 4.33067C141.174 4.17867 134.311 4.40367 134.311 4.83067ZM393.319 4.85667C393.323 5.26867 395.116 6.62867 397.304 7.87767C404.747 12.1287 404.746 12.1237 405.332 52.6067C405.933 94.1437 406.246 95.7997 415.227 105.02C432.461 122.714 473.283 122.706 487.377 105.005C496.493 93.5547 497.448 88.6037 498.185 48.9267C498.887 11.1577 498.731 11.9207 506.639 7.60667C512.447 4.43867 511.279 4.10667 494.311 4.10667C477.343 4.10667 476.175 4.43867 481.983 7.60667C489.889 11.9197 489.775 11.3687 490.102 46.8227C490.409 80.1467 489.979 84.9617 485.926 93.6067C473.577 119.948 432.767 117.171 424.336 89.4167C422.319 82.7737 422.225 80.6937 422.51 48.9307L422.811 15.4477L425.5 11.9237C426.979 9.98567 429.567 7.82967 431.25 7.13167C437.228 4.65567 434.064 4.10667 413.811 4.10667C402.536 4.10667 393.314 4.44467 393.319 4.85667ZM655.311 5.08767C655.311 5.62667 656.382 6.33767 657.691 6.66567C658.999 6.99467 661.587 8.82767 663.441 10.7407L666.811 14.2177V60.1067V105.996L663.441 109.473C661.587 111.386 658.999 113.219 657.691 113.548C650.784 115.281 656.793 116.107 676.311 116.107C698.333 116.107 699.612 115.848 693.589 112.607C691.545 111.507 688.846 109.078 687.592 107.209L685.311 103.811V60.1067V16.4027L687.592 13.0047C688.846 11.1357 691.545 8.70667 693.589 7.60667C699.612 4.36567 698.333 4.10667 676.311 4.10667C663.25 4.10667 655.311 4.47767 655.311 5.08767ZM727.311 5.60667C727.311 6.43167 727.794 7.10667 728.385 7.10667C728.976 7.10667 732.144 9.66767 735.425 12.7967L741.391 18.4877L741.101 61.0467C740.775 108.911 740.915 107.989 733.304 112.336C727.241 115.798 728.142 116.107 744.311 116.107C760.272 116.107 761.41 115.755 755.639 112.607C747.598 108.22 747.846 109.599 747.526 67.5347C747.298 37.5537 747.497 30.1147 748.526 30.1487C749.233 30.1717 763.086 48.4917 779.311 70.8607C816.15 121.649 810.521 116.107 825.266 116.107C837.992 116.107 839.331 115.519 834.044 112.251C832.247 111.14 829.759 109.148 828.514 107.823L826.252 105.415L826.531 59.8157L826.811 14.2167L830.181 10.7397C832.035 8.82767 834.623 6.99467 835.931 6.66567C842.264 5.07667 837.292 4.10667 822.811 4.10667C808.33 4.10667 803.358 5.07667 809.691 6.66567C810.999 6.99467 813.587 8.82767 815.441 10.7397L818.811 14.2157L819.094 53.7557C819.321 85.3137 819.122 93.2107 818.112 92.8737C817.415 92.6417 803.46 74.0367 787.099 51.5287C770.739 29.0217 756.2 9.14367 754.79 7.35667L752.226 4.10667H739.768C729.362 4.10667 727.311 4.35367 727.311 5.60667ZM890.311 4.73467C890.311 5.10867 892.129 6.97067 894.351 8.87267C898.074 12.0597 903.311 20.4437 903.311 23.2167C903.311 24.4877 873.903 90.9547 869.227 100.253C866.147 106.376 860.774 111.469 855.588 113.181C849.077 115.329 852.459 116.107 868.311 116.107C878.311 116.107 884.311 115.732 884.311 115.107C884.311 114.557 883.601 114.107 882.734 114.107C875.562 114.107 874.03 105.58 879.212 94.5037L882.206 88.1067H905.235C931.764 88.1067 929.285 87.1157 933.336 99.3367C935.942 107.196 935.048 109.834 928.762 112.832C922.683 115.731 924.872 116.107 947.811 116.107C970.142 116.107 974.01 115.483 966.68 113.064C956.521 109.711 956.137 109.017 936.213 58.0107C920.796 18.5417 920.155 16.6157 920.476 10.7357L920.811 4.60667L905.561 4.33067C897.173 4.17867 890.311 4.36067 890.311 4.73467ZM161.379 57.7247C166.291 70.3097 170.311 81.3937 170.311 82.3567C170.311 83.9667 168.668 84.1067 149.811 84.1067C130.913 84.1067 129.311 83.9697 129.311 82.3477C129.311 80.8767 134.924 67.5837 148.173 37.6787C151.069 31.1417 150.905 30.8927 161.379 57.7247ZM917.333 57.6887C922.26 70.2937 926.295 81.3937 926.301 82.3567C926.312 84.2677 886.071 85.1447 884.905 83.2587C884.474 82.5607 903.488 37.8657 905.825 34.0837C907.088 32.0407 908.199 34.3187 917.333 57.6887ZM57.311 162.107C57.311 162.657 57.745 163.107 58.276 163.107C60.8 163.107 66.136 169.356 67.192 173.549C68.726 179.641 68.726 253.573 67.192 259.665C66.136 263.858 60.8 270.107 58.276 270.107C57.745 270.107 57.311 270.557 57.311 271.107C57.311 271.739 64.478 272.107 76.811 272.107C97.168 272.107 98.225 271.88 93.106 268.607C85.464 263.721 85.811 266.194 85.811 216.607C85.811 167.02 85.464 169.493 93.106 164.607C98.225 161.334 97.168 161.107 76.811 161.107C64.478 161.107 57.311 161.475 57.311 162.107ZM126.862 162.024C126.276 162.973 125.751 167.121 124.86 177.857C124.276 184.895 126.055 186.553 128.322 181.081C131.902 172.437 145.323 165.588 157.311 166.287L162.811 166.607V213.107C162.811 265.01 162.975 263.716 155.792 268.369C150.34 271.9 151.2 272.107 171.311 272.107C190.95 272.107 192.668 271.695 186.991 268.346C180.238 264.362 180.261 264.558 180.551 212.935L180.811 166.607L185.811 166.284C197.098 165.556 208.909 171.152 213.839 179.565C215.303 182.063 216.929 184.107 217.452 184.107C218.326 184.107 217.736 165.491 216.762 162.357C216.288 160.832 127.802 160.504 126.862 162.024ZM262.311 161.745C262.311 162.096 264.113 164.338 266.316 166.728C268.518 169.117 271.241 172.992 272.367 175.34L274.414 179.607L256.773 219.107C237.664 261.896 236.546 263.876 229.236 267.907C222.164 271.807 222.813 272.107 238.311 272.107C253.852 272.107 253.574 272.207 249.109 268.218C245.023 264.567 245.038 261.028 249.179 251.857L252.227 245.107H275.824H299.421L301.993 250.857C306.658 261.288 304.936 270.107 298.234 270.107C297.726 270.107 297.311 270.557 297.311 271.107C297.311 271.742 304.978 272.107 318.311 272.107C339.887 272.107 342.042 271.697 335.543 268.83C326.702 264.929 325.602 262.891 307.577 217.036C291.811 176.93 290.899 174.237 290.911 167.857L290.923 161.107H276.617C268.749 161.107 262.311 161.394 262.311 161.745ZM363.35 161.857C363.371 162.269 364.811 163.507 366.551 164.607C373.907 169.259 373.811 168.572 373.811 216.607C373.811 264.642 373.907 263.955 366.551 268.607C364.811 269.707 363.371 270.95 363.35 271.368C363.328 271.787 381.181 272.012 403.023 271.868L442.735 271.607L445.711 261.378C448.474 251.877 448.588 247.044 445.944 251.528C438.876 263.512 426.375 267.773 400.811 266.911L391.811 266.607V219.43C391.811 166.657 391.431 169.515 399.106 164.607C404.225 161.334 403.168 161.107 382.811 161.107C372.086 161.107 363.328 161.445 363.35 161.857ZM470.35 161.857C470.371 162.269 471.796 163.507 473.516 164.607C481.158 169.493 480.811 167.02 480.811 216.607C480.811 266.194 481.158 263.721 473.516 268.607C468.397 271.88 469.454 272.107 489.811 272.107C510.175 272.107 511.243 271.877 506.071 268.607C498.715 263.955 498.811 264.642 498.811 216.607C498.811 168.572 498.715 169.259 506.071 164.607C511.243 161.337 510.175 161.107 489.811 161.107C479.086 161.107 470.328 161.445 470.35 161.857ZM573.311 161.892C573.311 162.353 574.659 163.727 576.306 164.945C579.492 167.301 585.286 176.51 585.302 179.245C585.307 180.146 577.441 198.574 567.822 220.196C549.411 261.582 546.83 265.993 539.161 269.169C533.74 271.414 536.369 272.107 550.311 272.107C564.181 272.107 566.659 271.498 561.796 269.282C556.408 266.827 556.205 261.144 561.147 251.107L563.855 245.607H587.77H611.685L614.557 253.638C617.958 263.151 617.422 266.132 611.834 268.798C605.717 271.714 607.791 272.107 629.311 272.107C652.055 272.107 652.698 271.939 645.386 267.907C637.778 263.712 636.526 261.287 619.151 217.107C603.839 178.176 602.822 175.174 602.716 168.607L602.602 161.607L587.956 161.33C579.901 161.178 573.311 161.431 573.311 161.892ZM670.311 161.71C670.311 162.074 673.25 165.065 676.841 168.356L683.372 174.34L683.091 217.651C682.778 266.003 683.113 263.749 675.516 268.607C670.534 271.792 671.505 272.107 686.311 272.107C701.117 272.107 702.088 271.792 697.106 268.607C689.602 263.809 689.845 265.252 689.515 223.535C689.277 193.388 689.472 186.116 690.515 186.152C691.228 186.176 705.787 205.414 722.87 228.902L753.928 271.607L766.12 271.888C779.999 272.207 780.088 272.138 773.311 266.302L768.311 261.996L768.333 218.302C768.358 168.931 768.414 168.521 775.654 164.622C781.421 161.516 780.217 161.107 765.311 161.107C750.505 161.107 749.534 161.422 754.516 164.607C762.046 169.422 761.777 167.771 762.105 211.179C762.342 242.523 762.147 250.102 761.105 250.081C760.393 250.066 745.387 230.154 727.757 205.831L695.703 161.607L683.007 161.327C676.024 161.173 670.311 161.345 670.311 161.71ZM834.311 161.905C834.311 162.374 835.499 163.849 836.952 165.183C848.119 175.434 848.121 175.423 828.172 220.166C810.006 260.912 808.03 264.387 800.856 268.193C794.134 271.759 794.975 272.107 810.311 272.107C818.011 272.107 824.311 271.927 824.311 271.707C824.311 271.487 822.682 269.678 820.69 267.686C816.458 263.454 816.504 262.048 821.22 251.648L824.202 245.071L847.998 245.339L871.794 245.607L874.732 253.395C878.145 262.439 877.731 265.359 872.578 268.601C867.351 271.888 868.425 272.107 889.811 272.107C910.747 272.107 913.255 271.598 906.982 268.621C898.541 264.616 897.27 262.244 879.576 217.465C864.174 178.491 863.023 175.125 862.865 168.607L862.695 161.607L848.503 161.33C840.697 161.177 834.311 161.436 834.311 161.905ZM287.896 214.585C293.015 227.722 296.977 238.839 296.699 239.289C295.913 240.56 255.311 240.321 255.311 239.045C255.311 238.461 259.19 229.123 263.932 218.295C268.673 207.467 273.398 196.657 274.432 194.274C277.231 187.82 277.799 188.676 287.896 214.585ZM599.163 213.857C604.223 226.92 608.352 238.17 608.338 238.857C608.293 240.947 567.311 240.638 567.311 238.548C567.311 235.932 587.709 190.107 588.873 190.107C589.472 190.107 594.102 200.795 599.163 213.857ZM859.393 213.595C870.994 243.427 872.444 240.107 847.811 240.107C831.997 240.107 827.311 239.819 827.311 238.848C827.311 237.802 833.791 222.628 846.133 194.768C849.213 187.817 849.561 188.31 859.393 213.595Z" fill="white"/>
</svg>
